# xmcd
#
# Track frame offsets:
#	150
#	10229
#	39348
#	58133
#	91867
#	104668
#	121655
#	144447
#	162703
#	186593
#	202620
#	221126
#	238824
#	252140
#
# Disc length: 3926 seconds
#
# Revision: 0
# Processed by: cddbd v1.5.2PL0 Copyright (c) Steve Scherf et al.
# Submitted via: EasyCDDAExtractor 9.0.0.1
#
DISCID=c60f540e
DTITLE=Gospel Harmony Choir - Concert Saint-Pierre Des Cuisines 27 Janvier 200
DTITLE=7 CD1
DYEAR=2007
DGENRE=Gospel
TTITLE0=Introduction
TTITLE1=Put your hands
TTITLE2=Bondié limyè mwen
TTITLE3=You are my everything
TTITLE4=Amen
TTITLE5=Jésus nous t'aimons
TTITLE6=Oui je te loue
TTITLE7=A song
TTITLE8=Your love divine
TTITLE9=Instrumental
TTITLE10=Kumbaya
TTITLE11=His eye is on sparrow
TTITLE12=Kwazé
TTITLE13=Animation
EXTD=
EXTT0=
EXTT1=
EXTT2=
EXTT3=
EXTT4=
EXTT5=
EXTT6=
EXTT7=
EXTT8=
EXTT9=
EXTT10=
EXTT11=
EXTT12=
EXTT13=
PLAYORDER=
